<svg width="286" height="286" viewBox="0 0 286 286" fill="none" xmlns="http://www.w3.org/2000/svg">
<mask id="path-1-inside-1" fill="white">
<path d="M286 143C286 171.283 277.613 198.93 261.9 222.447C246.187 245.963 223.854 264.291 197.724 275.115C171.594 285.938 142.841 288.77 115.102 283.252C87.3628 277.735 61.8826 264.115 41.8837 244.116C21.8848 224.117 8.26539 198.637 2.7477 170.898C-2.76998 143.159 0.0618955 114.406 10.8852 88.2763C21.7086 62.1464 40.0372 39.8129 63.5535 24.0998C87.0697 8.3868 114.717 -3.37268e-07 143 0V74.0004C129.353 74.0004 116.013 78.0472 104.666 85.6289C93.319 93.2107 84.4751 103.987 79.2527 116.595C74.0303 129.203 72.6639 143.077 75.3262 156.461C77.9886 169.846 84.5602 182.14 94.2099 191.79C103.86 201.44 116.154 208.011 129.539 210.674C142.923 213.336 156.797 211.97 169.405 206.747C182.013 201.525 192.789 192.681 200.371 181.334C207.953 169.987 212 156.647 212 143L286 143Z"/>
</mask>
<path d="M286 143C286 171.283 277.613 198.93 261.9 222.447C246.187 245.963 223.854 264.291 197.724 275.115C171.594 285.938 142.841 288.77 115.102 283.252C87.3628 277.735 61.8826 264.115 41.8837 244.116C21.8848 224.117 8.26539 198.637 2.7477 170.898C-2.76998 143.159 0.0618955 114.406 10.8852 88.2763C21.7086 62.1464 40.0372 39.8129 63.5535 24.0998C87.0697 8.3868 114.717 -3.37268e-07 143 0V74.0004C129.353 74.0004 116.013 78.0472 104.666 85.6289C93.319 93.2107 84.4751 103.987 79.2527 116.595C74.0303 129.203 72.6639 143.077 75.3262 156.461C77.9886 169.846 84.5602 182.14 94.2099 191.79C103.86 201.44 116.154 208.011 129.539 210.674C142.923 213.336 156.797 211.97 169.405 206.747C182.013 201.525 192.789 192.681 200.371 181.334C207.953 169.987 212 156.647 212 143L286 143Z" stroke="#252D6C" stroke-width="4" mask="url(#path-1-inside-1)"/>
</svg>
