<svg width="244" height="286" viewBox="0 0 244 286" fill="none" xmlns="http://www.w3.org/2000/svg">
<mask id="path-1-inside-1" fill="white">
<path d="M7.50318e-06 42C19.9759 22.0241 45.4268 8.42033 73.1342 2.909C100.842 -2.60236 129.561 0.226245 155.661 11.0371C181.761 21.848 204.068 40.1556 219.763 63.6448C235.458 87.134 243.836 114.75 243.836 143C243.836 171.25 235.458 198.866 219.763 222.355C204.068 245.844 181.761 264.152 155.661 274.963C129.561 285.774 100.842 288.602 73.1342 283.091C45.4268 277.58 19.9759 263.976 2.95132e-06 244L52.266 191.734C61.9047 201.373 74.1851 207.937 87.5543 210.596C100.924 213.255 114.781 211.89 127.375 206.674C139.968 201.458 150.732 192.624 158.305 181.29C165.878 169.956 169.92 156.631 169.92 143C169.92 129.369 165.878 116.044 158.305 104.71C150.732 93.3761 139.968 84.5424 127.375 79.326C114.781 74.1096 100.924 72.7447 87.5543 75.404C74.1851 78.0633 61.9047 84.6274 52.266 94.266L7.50318e-06 42Z"/>
</mask>
<path d="M7.50318e-06 42C19.9759 22.0241 45.4268 8.42033 73.1342 2.909C100.842 -2.60236 129.561 0.226245 155.661 11.0371C181.761 21.848 204.068 40.1556 219.763 63.6448C235.458 87.134 243.836 114.75 243.836 143C243.836 171.25 235.458 198.866 219.763 222.355C204.068 245.844 181.761 264.152 155.661 274.963C129.561 285.774 100.842 288.602 73.1342 283.091C45.4268 277.58 19.9759 263.976 2.95132e-06 244L52.266 191.734C61.9047 201.373 74.1851 207.937 87.5543 210.596C100.924 213.255 114.781 211.89 127.375 206.674C139.968 201.458 150.732 192.624 158.305 181.29C165.878 169.956 169.92 156.631 169.92 143C169.92 129.369 165.878 116.044 158.305 104.71C150.732 93.3761 139.968 84.5424 127.375 79.326C114.781 74.1096 100.924 72.7447 87.5543 75.404C74.1851 78.0633 61.9047 84.6274 52.266 94.266L7.50318e-06 42Z" stroke="#787C8F" stroke-width="4" mask="url(#path-1-inside-1)"/>
</svg>
