<svg width="32" height="32" viewBox="0 0 32 32" fill="none" xmlns="http://www.w3.org/2000/svg">
<circle cx="16" cy="16" r="15" fill="#252D6C" stroke="#252D6C" stroke-width="2"/>
<path d="M14.4553 8.25869C13.9672 7.77054 13.1757 7.77054 12.6875 8.25869C12.1994 8.74685 12.1994 9.53831 12.6875 10.0265L14.4553 8.25869ZM20.4286 15.9997L21.3125 16.8836L22.1963 15.9997L21.3125 15.1158L20.4286 15.9997ZM12.6875 21.973C12.1994 22.4611 12.1994 23.2526 12.6875 23.7407C13.1757 24.2289 13.9672 24.2289 14.4553 23.7407L12.6875 21.973ZM12.6875 10.0265L19.5447 16.8836L21.3125 15.1158L14.4553 8.25869L12.6875 10.0265ZM19.5447 15.1158L12.6875 21.973L14.4553 23.7407L21.3125 16.8836L19.5447 15.1158Z" fill="white"/>
</svg>
