<svg width="100" height="100" viewBox="0 0 100 100" fill="none" xmlns="http://www.w3.org/2000/svg">
<circle cx="50" cy="50" r="41.5" stroke="#6C799D"/>
<path d="M59.6321 42.0822C59.0463 41.4964 58.0965 41.4964 57.5108 42.0822C56.925 42.6679 56.925 43.6177 57.5108 44.2035L59.6321 42.0822ZM65.4286 50L66.4892 51.0606L67.5499 50L66.4892 48.9393L65.4286 50ZM57.5108 55.7964C56.925 56.3822 56.925 57.332 57.5108 57.9178C58.0965 58.5036 59.0463 58.5036 59.6321 57.9178L57.5108 55.7964ZM57.5108 44.2035L64.3679 51.0606L66.4892 48.9393L59.6321 42.0822L57.5108 44.2035ZM64.3679 48.9393L57.5108 55.7964L59.6321 57.9178L66.4892 51.0606L64.3679 48.9393Z" fill="#212121"/>
<path d="M41.4286 56.8571L34.5714 50L41.4286 43.1428" stroke="#212121" stroke-width="3" stroke-linecap="round"/>
</svg>
