<svg width="100" height="100" viewBox="0 0 100 100" fill="none" xmlns="http://www.w3.org/2000/svg">
<circle cx="50" cy="50" r="45.5" stroke="#6C799D"/>
<path d="M61.6321 42.0822C61.0463 41.4964 60.0966 41.4964 59.5108 42.0822C58.925 42.6679 58.925 43.6177 59.5108 44.2035L61.6321 42.0822ZM67.4286 50L68.4892 51.0606L69.5499 50L68.4892 48.9393L67.4286 50ZM59.5108 55.7964C58.925 56.3822 58.925 57.332 59.5108 57.9178C60.0966 58.5036 61.0463 58.5036 61.6321 57.9178L59.5108 55.7964ZM59.5108 44.2035L66.3679 51.0606L68.4892 48.9393L61.6321 42.0822L59.5108 44.2035ZM66.3679 48.9393L59.5108 55.7964L61.6321 57.9178L68.4892 51.0606L66.3679 48.9393Z" fill="#6C799D"/>
<path d="M39.4286 56.8571L32.5714 50L39.4286 43.1428" stroke="#6C799D" stroke-width="3" stroke-linecap="round"/>
</svg>
