<svg width="604" height="252" viewBox="0 0 604 252" fill="none" xmlns="http://www.w3.org/2000/svg">
<path class="logo-bg" d="M604 0H0V162H604V0Z" fill="#221E20"/>
<path class="logo-line" d="M549.46 79.4251H573.8" stroke="#939599" stroke-width="2" stroke-miterlimit="10"/>
<path class="logo-line" d="M158.438 79.4251H283.745" stroke="#939599" stroke-width="2" stroke-miterlimit="10"/>
<path class="logo-line" d="M21.4106 119.025V136.125H154.606V119.025" stroke="#939599" stroke-width="2" stroke-miterlimit="10"/>
<path class="logo-line" d="M343.244 79.4251H377.275" stroke="#939599" stroke-width="2" stroke-miterlimit="10"/>
<path class="logo-cars1" d="M555.319 44.5501H510.245V114.3H555.319V44.5501Z" fill="white"/>
<path class="logo-cars2" d="M505.737 44.5501H460.663V114.3H505.737V44.5501Z" fill="white"/>
<path class="logo-cars3" d="M456.155 44.5501H411.081V114.3H456.155V44.5501Z" fill="white"/>
<path class="logo-cars4" d="M270.471 40.484L225.568 44.3922L231.636 113.877L276.539 109.969L270.471 40.484Z" fill="white"/>
<path class="logo-cars5" d="M222.359 55.3007L179.43 41.5802L158.128 108.01L201.057 121.731L222.359 55.3007Z" fill="white"/>
<path class="logo-cars6" d="M138.371 36.5447L94.0537 44.7707L106.825 113.349L151.143 105.123L138.371 36.5447Z" fill="white"/>
<path class="logo-cars7" d="M93.9671 57.6301L51.0786 43.7926L29.5949 110.16L72.4834 123.997L93.9671 57.6301Z" fill="white"/>
<path class="logo-cars8" d="M406.573 44.5501H361.499V114.3H406.573V44.5501Z" fill="white"/>
<path class='logo-word' d="M92.4028 222.866H103.446C107.728 222.866 111.109 224.039 113.588 226.151C116.067 228.497 117.194 231.312 117.194 234.831C117.194 238.585 115.842 241.4 113.363 243.511C110.883 245.623 107.277 246.796 102.77 246.796H92.4028V222.866V222.866ZM98.7133 227.324V242.573H102.77C105.474 242.573 107.503 241.869 108.855 240.462C110.207 239.054 110.883 237.177 110.883 235.066C110.883 232.72 110.207 230.843 108.855 229.435C107.503 228.027 105.474 227.324 102.77 227.324H98.7133V227.324Z" fill="#0072BD"/>
<path class='logo-word' d="M129.815 230.374C132.519 230.374 134.773 231.078 136.576 232.72C138.379 234.362 139.28 236.239 139.28 239.054C139.28 241.635 138.379 243.746 136.576 245.154C134.773 246.562 132.519 247.266 129.815 247.266C127.11 247.266 124.857 246.562 123.054 244.919C121.251 243.277 120.349 241.4 120.349 238.82C120.349 236.239 121.251 234.128 123.054 232.72C124.857 231.078 127.11 230.374 129.815 230.374ZM129.815 244.216C132.294 244.216 133.646 242.339 133.646 238.585C133.646 235.066 132.294 233.189 129.815 233.189C128.688 233.189 127.561 233.658 126.885 234.597C126.209 235.535 125.758 236.943 125.758 238.585C125.983 242.339 127.11 244.216 129.815 244.216Z" fill="#0072BD"/>
<path class='logo-word' d="M157.31 242.339V246.093C155.282 246.796 153.254 247.266 151.676 247.266C148.746 247.266 146.267 246.562 144.689 244.919C143.112 243.277 141.985 241.4 141.985 238.82C141.985 236.239 142.886 234.362 144.689 232.72C146.492 231.078 148.746 230.374 151.451 230.374C153.254 230.374 155.057 230.843 157.085 231.547V235.301C155.733 234.597 154.155 234.128 152.803 234.128C151.225 234.128 149.873 234.597 148.971 235.301C148.07 236.239 147.619 237.177 147.619 238.82C147.619 240.227 148.07 241.4 148.971 242.339C149.873 243.277 151 243.746 152.577 243.746C153.704 243.512 155.282 243.277 157.31 242.339Z" fill="#0072BD"/>
<path class='logo-word' d="M173.086 230.608V234.128H167.001V240.697C167.001 241.4 167.227 242.104 167.677 242.573C168.128 243.043 168.804 243.277 169.48 243.277C170.607 243.277 171.734 243.043 173.086 242.339V246.093C171.509 246.796 169.706 247.031 168.128 247.031C166.1 247.031 164.522 246.562 163.395 245.389C162.268 244.216 161.592 242.808 161.592 240.931V233.893H159.113V233.189L166.1 225.682H166.776V230.843H173.086V230.608Z" fill="#0072BD"/>
<path class='logo-word' d="M192.018 241.87V245.154C189.989 246.562 187.51 247.266 184.58 247.266C181.65 247.266 179.171 246.562 177.594 244.919C176.016 243.277 174.889 241.4 174.889 238.82C174.889 236.239 175.791 234.362 177.368 232.72C178.946 231.078 181.2 230.374 183.679 230.374C186.158 230.374 188.412 231.312 189.989 232.954C191.567 234.597 192.468 236.943 192.243 239.758H180.298C180.298 241.166 180.974 242.339 181.876 243.043C182.777 243.746 184.129 244.216 185.707 244.216C187.735 244.216 189.989 243.512 192.018 241.87ZM180.523 236.943H187.735C187.51 234.597 186.158 233.424 184.129 233.424C181.876 233.424 180.749 234.597 180.523 236.943Z" fill="#0072BD"/>
<path class='logo-word' d="M207.343 246.796V244.45C205.765 246.092 203.962 247.031 201.934 247.031C200.131 247.031 198.553 246.562 197.427 245.389C196.3 244.215 195.624 242.808 195.624 240.931V230.608H200.807V240.696C200.807 242.808 201.709 243.746 203.512 243.746C204.413 243.746 205.315 243.277 205.991 242.573C206.667 241.869 207.118 241.166 207.118 240.931V230.608H212.527V246.796H207.343V246.796Z" fill="#0072BD"/>
<path class='logo-word' d="M222.443 230.608V235.301C224.021 232.016 225.824 230.374 227.852 230.374C228.754 230.374 229.881 230.843 231.458 231.781L230.106 236.239C228.754 235.535 227.852 235.066 226.951 235.066C225.824 235.066 224.697 235.77 223.796 237.177C222.894 238.585 222.443 239.524 222.443 239.758V246.796H217.26V230.608H222.443Z" fill="#0072BD"/>
<path class='logo-word' d="M262.109 222.866L250.615 247.265H247.91L235.965 222.866H242.727L249.262 236.473L255.573 222.866H262.109Z" fill="#0072BD"/>
<path class='logo-word' d="M263.912 225.447C263.912 224.743 264.137 224.039 264.814 223.57C265.49 223.101 266.166 222.632 266.842 222.632C267.743 222.632 268.42 222.866 268.87 223.57C269.321 224.274 269.772 224.743 269.772 225.447C269.772 226.151 269.546 226.855 268.87 227.324C268.194 227.793 267.518 228.262 266.842 228.262C265.94 228.262 265.264 228.028 264.814 227.324C264.363 226.855 263.912 226.151 263.912 225.447ZM269.546 230.608V246.796H264.363V230.608H269.546Z" fill="#0072BD"/>
<path class='logo-word' d="M279.237 230.608V232.954C280.815 231.078 282.618 230.374 284.646 230.374C286.449 230.374 287.801 230.843 288.928 232.016C290.055 233.189 290.731 234.597 290.731 236.708V247.031H285.548V237.177C285.548 235.066 284.646 233.893 282.843 233.893C281.491 233.893 280.364 234.831 279.237 236.474V247.031H274.054V230.843H279.237V230.608Z" fill="#0072BD"/>
<path class='logo-word' d="M309.888 242.339V246.093C307.86 246.796 305.831 247.266 304.254 247.266C301.324 247.266 298.845 246.562 297.267 244.919C295.689 243.277 294.562 241.4 294.562 238.82C294.562 236.239 295.464 234.362 297.267 232.72C299.07 231.078 301.324 230.374 304.028 230.374C305.831 230.374 307.634 230.843 309.663 231.547V235.301C308.31 234.597 306.733 234.128 305.38 234.128C303.803 234.128 302.451 234.597 301.549 235.301C300.648 236.239 300.197 237.177 300.197 238.82C300.197 240.227 300.648 241.4 301.549 242.339C302.451 243.277 303.577 243.746 305.155 243.746C306.282 243.512 307.86 243.277 309.888 242.339Z" fill="#0072BD"/>
<path class='logo-word' d="M329.946 241.87V245.154C327.918 246.562 325.439 247.266 322.509 247.266C319.579 247.266 317.1 246.562 315.522 244.919C313.719 243.277 312.818 241.4 312.818 238.82C312.818 236.239 313.719 234.362 315.297 232.72C316.875 231.078 319.128 230.374 321.607 230.374C324.086 230.374 326.34 231.312 327.918 232.954C329.495 234.597 330.397 236.943 330.172 239.758H318.227C318.227 241.166 318.903 242.339 319.804 243.043C320.706 243.746 322.058 244.216 323.636 244.216C325.664 244.216 327.692 243.512 329.946 241.87ZM318.227 236.943H325.439C325.213 234.597 323.861 233.424 321.833 233.424C319.804 233.424 318.452 234.597 318.227 236.943Z" fill="#0072BD"/>
<path class='logo-word' d="M338.961 230.608V232.954C340.539 231.078 342.342 230.374 344.37 230.374C346.173 230.374 347.526 230.843 348.652 232.016C349.779 233.189 350.455 234.597 350.455 236.708V247.031H345.272V237.177C345.272 235.066 344.37 233.893 342.567 233.893C341.215 233.893 340.088 234.831 338.961 236.474V247.031H333.778V230.843H338.961V230.608Z" fill="#0072BD"/>
<path class='logo-word' d="M366.907 230.608V234.128H360.822V240.697C360.822 241.4 361.048 242.104 361.498 242.573C361.949 243.043 362.625 243.277 363.301 243.277C364.428 243.277 365.555 243.043 366.907 242.339V246.093C365.33 246.796 363.527 247.031 361.949 247.031C359.921 247.031 358.343 246.562 357.216 245.389C356.089 244.216 355.413 242.808 355.413 240.931V233.893H352.934V233.189L359.921 225.682H360.597V230.843H366.907V230.608Z" fill="#0072BD"/>
<path class='logo-word' d="M380.205 222.866H391.248C393.727 222.866 395.53 223.57 397.108 224.977C398.685 226.385 399.361 228.027 399.361 229.904C399.361 232.485 398.009 234.596 395.079 235.769C396.431 236.239 397.558 237.881 398.685 240.227C399.812 242.573 400.939 244.919 401.84 247.031H395.079C394.629 246.327 393.952 244.685 393.051 242.573C392.149 240.462 391.248 238.819 390.572 238.35C389.896 237.881 388.994 237.412 388.318 237.412H386.515V247.265H380.43V222.866H380.205ZM386.515 227.324V232.72H389.896C391.023 232.72 391.699 232.485 392.375 232.016C393.051 231.547 393.276 230.843 393.276 229.904C393.276 228.027 392.149 227.089 389.67 227.089H386.515V227.324Z" fill="#0072BD"/>
<path class='logo-word' d="M417.616 222.632C421.898 222.632 425.279 223.805 427.983 226.385C430.688 228.966 431.815 231.781 431.815 235.066C431.815 238.35 430.463 241.166 427.758 243.746C425.054 246.092 421.673 247.5 417.616 247.5C413.334 247.5 409.954 246.327 407.249 243.746C404.545 241.166 403.192 238.35 403.192 235.066C403.192 231.781 404.545 228.966 407.024 226.385C409.503 223.805 413.334 222.632 417.616 222.632ZM417.616 242.104C419.87 242.104 421.898 241.4 423.251 239.993C424.603 238.585 425.504 236.943 425.504 234.597C425.504 232.485 424.828 230.608 423.251 229.201C421.898 227.793 419.87 227.089 417.616 227.089C415.363 227.089 413.334 227.793 411.982 229.201C410.63 230.608 409.728 232.251 409.728 234.597C409.728 236.708 410.404 238.585 411.982 239.993C413.334 241.635 415.137 242.104 417.616 242.104Z" fill="#0072BD"/>
<path class='logo-word' d="M436.322 222.866H447.14C449.619 222.866 451.648 223.57 453.225 224.743C454.803 225.916 455.479 227.324 455.479 228.966C455.479 231.077 454.352 232.72 452.098 233.658C453.901 234.127 455.028 234.831 455.93 236.004C456.831 237.177 457.282 238.35 457.282 239.758C457.282 241.869 456.606 243.511 455.028 244.919C453.451 246.327 451.422 246.796 448.492 246.796H436.322V222.866V222.866ZM442.407 227.324V232.485H445.563C446.464 232.485 447.366 232.25 447.816 231.781C448.267 231.312 448.718 230.608 448.718 229.904C448.718 229.2 448.492 228.497 447.816 228.027C447.14 227.558 446.464 227.324 445.563 227.324H442.407V227.324ZM442.407 236.708V242.338H445.788C447.366 242.338 448.718 242.104 449.394 241.635C450.07 241.165 450.521 240.462 450.521 239.289C450.521 238.35 450.07 237.881 449.394 237.412C448.718 236.942 447.816 236.708 446.689 236.708H442.407V236.708Z" fill="#0072BD"/>
<path class='logo-word' d="M480.045 242.573V247.031H461.79V223.101H479.819V227.558H467.875V232.485H479.143V236.943H467.875V242.808H480.045V242.573Z" fill="#0072BD"/>
<path class='logo-word' d="M484.777 222.866H495.821C498.3 222.866 500.103 223.57 501.68 224.977C503.258 226.385 503.934 228.027 503.934 229.904C503.934 232.485 502.582 234.596 499.652 235.769C501.004 236.239 502.131 237.881 503.258 240.227C504.385 242.573 505.512 244.919 506.413 247.031H499.652C499.201 246.327 498.525 244.685 497.624 242.573C496.722 240.462 495.821 238.819 495.145 238.35C494.468 237.881 493.567 237.412 492.891 237.412H491.088V247.265H485.003V222.866H484.777ZM490.862 227.324V232.72H494.243C495.37 232.72 496.046 232.485 496.722 232.016C497.398 231.547 497.624 230.843 497.624 229.904C497.624 228.027 496.497 227.089 494.018 227.089H490.862V227.324Z" fill="#0072BD"/>
<path class='logo-word' d="M529.627 222.866V227.324H520.612V247.031H514.527V227.324H505.512V222.866H529.627Z" fill="#0072BD"/>
<path class='logo-word' d="M77.6244 197.126V202.288C74.6826 203.93 71.5144 204.634 68.1199 204.634C63.8202 204.634 60.4257 203.461 57.9364 201.115C55.4472 198.768 54.0894 195.953 54.0894 192.434C54.0894 188.915 55.4471 186.1 58.1627 183.754C60.8783 181.407 64.2728 180.234 68.5725 180.234C71.967 180.234 74.9089 180.938 77.1719 182.346V187.742C74.23 186.1 71.5144 185.396 68.7988 185.396C66.3095 185.396 64.0465 186.1 62.4624 187.507C60.8783 188.915 59.9731 190.557 59.9731 192.669C59.9731 194.78 60.8783 196.657 62.4624 197.83C64.0465 199.238 66.0832 199.941 68.5725 199.941C69.704 199.941 71.0618 199.707 72.1933 199.472C73.7774 198.768 75.3615 198.065 77.6244 197.126Z" fill="#221E20"/>
<path class='logo-word' d="M96.1812 180.234L106.817 204.164H100.481L98.4442 199.472H87.5818L85.7714 204.164H79.4351L89.1659 180.234H96.1812ZM96.8601 195.484L93.013 186.1L89.3922 195.484H96.8601Z" fill="#221E20"/>
<path class='logo-word' d="M109.532 180.234H119.942C122.431 180.234 124.468 180.938 125.826 182.111C127.184 183.284 127.863 184.692 127.863 186.334C127.863 188.446 126.731 190.088 124.468 191.026C126.052 191.496 127.41 192.199 128.315 193.372C129.22 194.545 129.673 195.719 129.673 197.126C129.673 199.238 128.994 200.88 127.41 202.288C126.052 203.695 123.789 204.164 121.074 204.164H109.306V180.234H109.532ZM115.416 184.692V189.853H118.584C119.49 189.853 120.395 189.619 120.847 189.15C121.3 188.68 121.753 187.976 121.753 187.273C121.753 186.569 121.526 185.865 120.847 185.396C120.395 184.927 119.49 184.692 118.584 184.692H115.416V184.692ZM115.416 194.311V199.941H118.811C120.395 199.941 121.526 199.707 122.205 199.238C122.884 198.768 123.337 198.065 123.337 196.892C123.337 195.953 123.11 195.484 122.431 195.015C121.753 194.546 120.847 194.311 119.716 194.311H115.416V194.311Z" fill="#221E20"/>
<path class='logo-word' d="M140.083 180.234V204.164H134.199V180.234H140.083Z" fill="#221E20"/>
<path class='logo-word' d="M169.502 180.234V204.164H164.523L151.171 188.68V204.164H145.288V180.234H150.719L163.618 195.015V180.234H169.502Z" fill="#221E20"/>
<path class='logo-word' d="M192.584 199.941V204.399H174.933V180.234H192.358V184.692H180.817V189.619H191.679V194.076H180.817V199.941H192.584Z" fill="#221E20"/>
<path class='logo-word' d="M218.609 180.234V184.692H210.009V204.399H204.126V184.692H195.526V180.234H218.609Z" fill="#221E20"/>
<path class='logo-word' d="M231.281 180.234H241.917C245.991 180.234 249.159 181.407 251.648 183.519C254.137 185.865 255.269 188.68 255.269 192.199C255.269 195.953 254.137 198.768 251.648 200.88C249.159 202.991 245.764 204.164 241.238 204.164H231.281V180.234ZM237.391 184.692V199.941H241.238C243.728 199.941 245.764 199.238 247.122 197.83C248.48 196.422 249.159 194.546 249.159 192.434C249.159 190.088 248.48 188.211 247.122 186.803C245.764 185.396 243.728 184.692 241.238 184.692H237.391V184.692Z" fill="#221E20"/>
<path class='logo-word' d="M258.437 191.026V189.853C259.569 188.915 260.021 187.507 260.021 185.865C260.021 185.63 260.021 185.396 260.021 185.396C258.89 184.927 258.211 183.988 258.211 182.815C258.211 182.111 258.437 181.407 259.116 180.938C259.569 180.469 260.248 180.234 261.153 180.234C262.284 180.234 262.963 180.704 263.642 181.407C264.321 182.111 264.547 183.05 264.547 184.223C264.547 185.865 263.868 187.507 262.737 188.915C261.832 190.088 260.248 190.792 258.437 191.026Z" fill="#221E20"/>
<path class='logo-word' d="M281.52 180C285.593 180 288.987 181.173 291.477 183.754C293.966 186.334 295.324 189.15 295.324 192.434C295.324 195.719 293.966 198.534 291.477 201.115C288.987 203.461 285.593 204.868 281.52 204.868C277.446 204.868 274.052 203.695 271.562 201.115C269.073 198.769 267.715 195.719 267.715 192.434C267.715 189.15 269.073 186.334 271.562 183.754C274.052 181.173 277.22 180 281.52 180ZM281.52 199.707C283.783 199.707 285.593 199.003 286.951 197.596C288.309 196.188 288.987 194.546 288.987 192.2C288.987 190.088 288.309 188.211 286.951 186.804C285.593 185.396 283.783 184.692 281.52 184.692C279.257 184.692 277.446 185.396 276.088 186.804C274.731 188.211 274.052 189.854 274.052 192.2C274.052 194.311 274.731 196.188 276.088 197.596C277.22 199.003 279.03 199.707 281.52 199.707Z" fill="#221E20"/>
<path class='logo-word' d="M299.171 180.234H309.807C312.07 180.234 314.107 180.938 315.464 182.346C316.822 183.754 317.727 185.396 317.727 187.273C317.727 189.853 316.37 191.965 313.654 193.138C314.786 193.607 315.917 195.249 317.049 197.595C318.18 199.941 319.085 202.288 320.217 204.399H313.654C313.201 203.695 312.523 202.053 311.617 199.941C310.712 197.83 309.807 196.188 309.128 195.719C308.449 195.249 307.77 194.78 306.865 194.78H305.055V204.634H299.171V180.234ZM305.281 184.692V190.088H308.449C309.354 190.088 310.26 189.853 310.938 189.384C311.617 188.915 311.844 188.211 311.844 187.273C311.844 185.396 310.712 184.457 308.449 184.457H305.281V184.692Z" fill="#221E20"/>
<path class='logo-word' d="M344.431 180.234V184.692H335.831V204.399H329.948V184.692H321.348V180.234H344.431Z" fill="#221E20"/>
<path class='logo-word' d="M371.813 180.234V204.164H365.929V194.545H353.936V204.164H348.052V180.234H353.936V189.853H365.929V180.234H371.813Z" fill="#221E20"/>
<path class='logo-word' d="M389.691 180C393.764 180 397.159 181.173 399.648 183.754C402.137 186.334 403.495 189.15 403.495 192.434C403.495 195.719 402.137 198.534 399.648 201.115C397.159 203.461 393.764 204.868 389.691 204.868C385.618 204.868 382.223 203.695 379.734 201.115C377.245 198.769 375.887 195.719 375.887 192.434C375.887 189.15 377.245 186.334 379.734 183.754C382.223 181.173 385.618 180 389.691 180ZM389.691 199.707C391.954 199.707 393.764 199.003 395.122 197.596C396.48 196.188 397.159 194.546 397.159 192.2C397.159 190.088 396.48 188.211 395.122 186.804C393.764 185.396 391.954 184.692 389.691 184.692C387.428 184.692 385.618 185.396 384.26 186.804C382.902 188.211 382.223 189.854 382.223 192.2C382.223 194.311 382.902 196.188 384.26 197.596C385.618 199.003 387.428 199.707 389.691 199.707Z" fill="#221E20"/>
<path class='logo-word' d="M407.568 180.234H418.204C422.278 180.234 425.446 181.407 427.935 183.519C430.425 185.865 431.556 188.68 431.556 192.199C431.556 195.953 430.425 198.768 427.935 200.88C425.446 202.991 422.051 204.164 417.525 204.164H407.568V180.234ZM413.452 184.692V199.941H417.299C419.788 199.941 421.825 199.238 423.183 197.83C424.541 196.422 425.22 194.546 425.22 192.434C425.22 190.088 424.541 188.211 423.183 186.803C421.825 185.396 419.788 184.692 417.299 184.692H413.452V184.692Z" fill="#221E20"/>
<path class='logo-word' d="M448.302 180C452.376 180 455.77 181.173 458.259 183.754C460.749 186.334 462.107 189.15 462.107 192.434C462.107 195.719 460.749 198.534 458.259 201.115C455.77 203.461 452.376 204.868 448.302 204.868C444.229 204.868 440.834 203.695 438.345 201.115C435.856 198.534 434.498 195.719 434.498 192.434C434.498 189.15 435.856 186.334 438.345 183.754C440.834 181.173 444.229 180 448.302 180ZM448.302 199.707C450.565 199.707 452.376 199.003 453.733 197.596C455.091 196.188 455.77 194.546 455.77 192.2C455.77 190.088 455.091 188.211 453.733 186.804C452.376 185.396 450.565 184.692 448.302 184.692C446.039 184.692 444.229 185.396 442.871 186.804C441.513 188.211 440.834 189.854 440.834 192.2C440.834 194.311 441.513 196.188 442.871 197.596C444.229 199.003 446.039 199.707 448.302 199.707Z" fill="#221E20"/>
<path class='logo-word' d="M490.394 180.234V204.164H485.415L472.063 188.68V204.164H466.18V180.234H471.611L484.51 195.015V180.234H490.394Z" fill="#221E20"/>
<path class='logo-word' d="M517.323 180.234V184.692H508.724V204.399H502.84V184.692H494.241V180.234H517.323Z" fill="#221E20"/>
<path class='logo-word' d="M526.828 180.234V204.164H520.944V180.234H526.828Z" fill="#221E20"/>
<path class='logo-word' d="M549.91 199.941V204.399H532.259V180.234H549.684V184.692H538.143V189.619H549.005V194.076H538.143V199.941H549.91Z" fill="#221E20"/>
</svg>
